<svg aria-hidden="true" viewBox="0 0 24 24" xmlns="http://www.w3.org/2000/svg"><!-- Google "G" mark used as the "Continue with Google" button glyph --><path d="M21.35 12.25c0-.66-.06-1.3-.17-1.92H12v3.63h5.24a4.49 4.49 0 0 1-1.94 2.94v2.45h3.13c1.84-1.69 2.92-4.18 2.92-7.1zM12 22c2.62 0 4.82-.86 6.43-2.34l-3.13-2.45c-.87.58-1.98.93-3.3.93a5.73 5.73 0 0 1-5.39-3.96H3.32v2.49A9.99 9.99 0 1 0 12 22zm-5.39-7.6c-.15-.43-.23-.89-.23-1.4s.08-.97.23-1.4V9.11H3.32A9.99 9.99 0 0 0 2 12c0 1.62.39 3.13 1.07 4.49l3.54-2.09zM12 5.95c1.43 0 2.71.49 3.72 1.46l2.79-2.79C16.82 2.99 14.62 2 12 2 8.43 2 5.27 3.86 3.32 6.62l3.54 2.49c.84-2.55 3.21-3.16 5.14-3.16z"/></svg>