<svg aria-hidden="true" viewBox="0 0 24 24" xmlns="http://www.w3.org/2000/svg">
  <!-- LangChain: interlocking chain links -->
  <path d="M9 4a5 5 0 0 0-5 5v2a3 3 0 0 0-3 3 3 3 0 0 0 3 3v2a5 5 0 0 0 5 5h2a3 3 0 0 0 3-3 3 3 0 0 0-3-3h-2a1 1 0 0 1-1-1v-2a1 1 0 0 1 1-1h6a5 5 0 0 0 5-5V7a3 3 0 0 0 3-3 3 3 0 0 0-3-3h-2A5 5 0 0 0 9 4zm0 2h2a3 3 0 0 1 3 3 1 1 0 0 1-1 1h-2a3 3 0 0 0-3 3v2a3 3 0 0 0 3 3h2a1 1 0 0 1 1 1 1 1 0 0 1-1 1H9a3 3 0 0 1-3-3V9a3 3 0 0 1 3-3zm6 6h-2a1 1 0 0 1-1-1 1 1 0 0 1 1-1h2a3 3 0 0 0 3-3 1 1 0 0 1 1-1 1 1 0 0 1 1 1v2a3 3 0 0 1-3 3z"/>
</svg>
