<svg aria-hidden="true" viewBox="0 0 1952 734.93" xmlns="http://www.w3.org/2000/svg"><path d="M1436.62 603.304 1493.01 460.705 1655.83 460.705 1578.56 244.39 1675.2.001 1952 734.933 1747.87 734.933 1700.57 603.304 1436.62 603.304z"/><path d="M1262.47 734.935 1558.79.002 1362.34.003 1159.64 474.933 1015.5.004 864.499.004 709.731 474.933 600.585 258.517 501.812 562.819 602.096 734.935 795.427 734.935 935.284 309.025 1068.63 734.935 1262.47 734.935z"/><path d="M186.476 482.643 307.479 482.643c36.654 0 69.293-4.091 97.917-12.273l31.293-96.408 87.459-269.446c-6.664-10.562-14.272-20.549-22.824-29.959C345.32 24.852 279.62.000406 193.123.000406L0 .000406 0 734.933h186.476V482.643zm160.166-313.564c17.54 17.653 26.309 41.276 26.309 70.871 0 29.822-7.713 53.474-23.138 70.956-16.91 19.425-48.047 29.137-93.409 29.137H186.476V142.598h70.442c42.277 0 72.185 8.827 89.724 26.481z"/></svg>
