<svg aria-hidden="true" viewBox="0 0 24 24" xmlns="http://www.w3.org/2000/svg"><path d="M2.75 1.5a1.25 1.25 0 1 0 0 2.5h.5V7c0 1.5.7 2.8 1.8 3.6l3.5 2.5-3.5 2.5C4 16.4 3.25 17.7 3.25 19.2v2.3h-.5a1.25 1.25 0 1 0 0 2.5h18.5a1.25 1.25 0 1 0 0-2.5h-.5v-2.3c0-1.5-.75-2.8-1.8-3.6l-3.5-2.5 3.5-2.5C20 9.8 20.75 8.5 20.75 7V4h.5a1.25 1.25 0 1 0 0-2.5H2.75zM7 7V4h4v3c0 1.5.7 2.8 1.8 3.6L12 10.8l-.8-.2C9.7 10 9 8.7 9 7.2V4h2v3c0 .8.4 1.5 1 2l-1 .7-1-.7c.6-.5 1-1.2 1-2V4h2v3c0 1.5-.7 2.8-1.8 3.6L12 10.8l-.2-.2C10.7 10 10 8.7 10 7.2V4h1v3zM5 19.2c0-.8.4-1.5 1-2l6-4.3 6 4.3c.6.5 1 1.2 1 2v2.3H5v-2.3z"/></svg>
